<svg width="22" height="20" viewBox="0 0 22 20" fill="none" xmlns="http://www.w3.org/2000/svg">
<path d="M14.3 1.11409e-07C14.855 -0.00017731 15.3896 0.211563 15.7966 0.592774C16.2036 0.973986 16.4529 1.49649 16.4945 2.05556L16.5 2.22222C16.5 2.49437 16.599 2.75704 16.778 2.96041C16.957 3.16379 17.2037 3.29371 17.4713 3.32556L17.6 3.33333H18.7C19.5417 3.33329 20.3517 3.65814 20.9641 4.24143C21.5765 4.82471 21.9451 5.62234 21.9945 6.47111L22 6.66667V16.6667C22 17.5169 21.6784 18.335 21.101 18.9536C20.5235 19.5722 19.7339 19.9446 18.8936 19.9944L18.7 20H3.3C2.45827 20 1.64833 19.6752 1.03591 19.0919C0.423492 18.5086 0.0548817 17.711 0.00550013 16.8622L5.12649e-09 16.6667V6.66667C-4.68839e-05 5.81643 0.321558 4.99832 0.899012 4.37971C1.47647 3.7611 2.26612 3.38877 3.1064 3.33889L3.3 3.33333H4.4C4.69174 3.33333 4.97153 3.21627 5.17782 3.0079C5.38411 2.79952 5.5 2.51691 5.5 2.22222C5.49982 1.66158 5.70945 1.12159 6.08685 0.710502C6.46425 0.299412 6.98153 0.0476038 7.535 0.00555579L7.7 1.11409e-07H14.3ZM11 7.77778C10.1823 7.77771 9.39361 8.08434 8.78695 8.63821C8.18028 9.19208 7.79882 9.95375 7.7165 10.7756L7.7044 10.9444L7.7 11.1111L7.7044 11.2778C7.73668 11.9291 7.95743 12.5566 8.33929 13.0825C8.72115 13.6084 9.24735 14.0096 9.85272 14.2364C10.4581 14.4632 11.116 14.5056 11.745 14.3584C12.374 14.2113 12.9465 13.8809 13.3914 13.4084C13.8364 12.9358 14.1344 12.3417 14.2484 11.6998C14.3624 11.0579 14.2875 10.3963 14.033 9.7969C13.7784 9.19755 13.3554 8.68679 12.8163 8.32789C12.2772 7.96899 11.6457 7.77772 11 7.77778Z" fill="#9D9D9D"/>
</svg>
