<svg width="30" height="25" viewBox="0 0 30 25" fill="none" xmlns="http://www.w3.org/2000/svg">
<path d="M26.5385 3.26087H22.5404L20.5745 0.483696C20.4692 0.334989 20.3266 0.213048 20.1593 0.128676C19.992 0.0443046 19.8052 0.000107344 19.6154 0H10.3846C10.1948 0.000107344 10.008 0.0443046 9.84073 0.128676C9.67343 0.213048 9.5308 0.334989 9.42548 0.483696L7.45817 3.26087H3.46154C2.54348 3.26087 1.66303 3.60442 1.01386 4.21596C0.364697 4.82749 0 5.6569 0 6.52174V21.7391C0 22.604 0.364697 23.4334 1.01386 24.0449C1.66303 24.6564 2.54348 25 3.46154 25H26.5385C27.4565 25 28.337 24.6564 28.9861 24.0449C29.6353 23.4334 30 22.604 30 21.7391V6.52174C30 5.6569 29.6353 4.82749 28.9861 4.21596C28.337 3.60442 27.4565 3.26087 26.5385 3.26087ZM20.1923 13.587C20.1923 14.5544 19.8878 15.5 19.3172 16.3044C18.7467 17.1088 17.9358 17.7357 16.987 18.1059C16.0382 18.4761 14.9942 18.573 13.987 18.3843C12.9798 18.1955 12.0546 17.7297 11.3285 17.0456C10.6023 16.3616 10.1078 15.49 9.90746 14.5412C9.70711 13.5924 9.80994 12.6089 10.2029 11.7151C10.5959 10.8214 11.2614 10.0574 12.1153 9.51999C12.9692 8.98252 13.9731 8.69565 15 8.69565C16.3771 8.69565 17.6978 9.21099 18.6715 10.1283C19.6453 11.0456 20.1923 12.2897 20.1923 13.587Z" fill="#9D9D9D"/>
</svg>
