<svg width="31" height="28" viewBox="0 0 31 28" fill="none" xmlns="http://www.w3.org/2000/svg">
<path d="M15.4985 0C24.0604 0 31 5.31595 31 11.8753C31 18.4332 24.0604 23.7491 15.5 23.7491C14.6476 23.7495 13.7961 23.6962 12.9506 23.5895L6.44357 27.7724C5.704 28.1568 5.44271 28.1148 5.74681 27.1731L7.06357 21.8369C2.81214 19.7186 0 16.048 0 11.8753C0 5.3174 6.93809 0 15.5 0M24.2213 11.6939L26.3913 9.6279C26.5165 9.50009 26.5864 9.32951 26.5862 9.15209C26.586 8.97466 26.5157 8.80424 26.3902 8.67673C26.2646 8.54922 26.0937 8.47457 25.9132 8.46851C25.7328 8.46244 25.5571 8.52544 25.423 8.64422L22.5769 11.3515V9.1143C22.5769 8.93268 22.5034 8.75849 22.3728 8.63007C22.2421 8.50164 22.0649 8.42949 21.8801 8.42949C21.6953 8.42949 21.5181 8.50164 21.3874 8.63007C21.2567 8.75849 21.1833 8.93268 21.1833 9.1143V12.8241C21.1573 12.93 21.1573 13.0404 21.1833 13.1462V15.234C21.1833 15.4156 21.2567 15.5898 21.3874 15.7183C21.5181 15.8467 21.6953 15.9188 21.8801 15.9188C22.0649 15.9188 22.2421 15.8467 22.3728 15.7183C22.5034 15.5898 22.5769 15.4156 22.5769 15.234V13.2565L23.2072 12.6573L25.3152 15.6069C25.3678 15.6805 25.4347 15.7433 25.512 15.7915C25.5893 15.8397 25.6755 15.8725 25.7657 15.888C25.8559 15.9035 25.9483 15.9014 26.0377 15.8818C26.127 15.8622 26.2116 15.8255 26.2865 15.7737C26.3615 15.722 26.4253 15.6563 26.4744 15.5803C26.5234 15.5043 26.5568 15.4196 26.5726 15.331C26.5883 15.2423 26.5862 15.1515 26.5662 15.0637C26.5463 14.9758 26.5089 14.8927 26.4563 14.8191L24.2213 11.6939ZM19.8548 14.4854H17.6995V9.13606C17.6913 8.96008 17.6143 8.794 17.4847 8.67233C17.3551 8.55066 17.1827 8.48277 17.0035 8.48277C16.8243 8.48277 16.6519 8.55066 16.5223 8.67233C16.3927 8.794 16.3157 8.96008 16.3075 9.13606V15.1702C16.3075 15.5474 16.6175 15.855 17.0028 15.855H19.8548C20.0396 15.855 20.2168 15.7828 20.3474 15.6544C20.4781 15.526 20.5515 15.3518 20.5515 15.1702C20.5515 14.9886 20.4781 14.8144 20.3474 14.686C20.2168 14.5575 20.0396 14.4854 19.8548 14.4854ZM11.2087 12.9025L12.2361 10.4244L13.178 12.901L11.2087 12.9025ZM14.9331 13.6091L14.9361 13.5858C14.9357 13.4133 14.8687 13.2474 14.7486 13.1216L13.2045 9.05917C13.1398 8.86558 13.0165 8.69601 12.8511 8.57312C12.6857 8.45023 12.4861 8.37988 12.279 8.37146C12.0703 8.37056 11.8663 8.43213 11.6941 8.54798C11.5219 8.66383 11.3897 8.82847 11.315 9.01999L8.86157 14.9322C8.79169 15.1004 8.79263 15.289 8.86419 15.4564C8.93576 15.6239 9.07208 15.7566 9.24317 15.8252C9.41426 15.8939 9.6061 15.893 9.77649 15.8227C9.94689 15.7523 10.0819 15.6184 10.1518 15.4502L10.6419 14.2707H13.6976L14.1375 15.4313C14.1675 15.5181 14.2149 15.5981 14.2769 15.6665C14.3389 15.7349 14.4143 15.7904 14.4985 15.8297C14.5828 15.8689 14.6742 15.8912 14.7673 15.8951C14.8605 15.899 14.9535 15.8845 15.0408 15.8525C15.1282 15.8204 15.2081 15.7715 15.2758 15.7085C15.3436 15.6456 15.3978 15.5699 15.4352 15.486C15.4727 15.4021 15.4926 15.3116 15.4939 15.22C15.4951 15.1284 15.4776 15.0374 15.4424 14.9526L14.9331 13.6091ZM10.0278 9.14332C10.0278 8.96195 9.95456 8.78798 9.82421 8.6596C9.69386 8.53121 9.51701 8.45889 9.33248 8.45851H4.54224C4.35745 8.45851 4.18022 8.53066 4.04955 8.65909C3.91888 8.78751 3.84548 8.96169 3.84548 9.14332C3.84548 9.32494 3.91888 9.49912 4.04955 9.62755C4.18022 9.75597 4.35745 9.82812 4.54224 9.82812H6.25462V15.2485C6.25462 15.4302 6.32803 15.6043 6.4587 15.7328C6.58936 15.8612 6.76659 15.9333 6.95138 15.9333C7.13617 15.9333 7.3134 15.8612 7.44407 15.7328C7.57473 15.6043 7.64814 15.4302 7.64814 15.2485V9.82812H9.331C9.51579 9.82812 9.69302 9.75597 9.82368 9.62755C9.95435 9.49912 10.0278 9.32494 10.0278 9.14332Z" fill="#333333"/>
</svg>
