<svg width="45" height="45" viewBox="0 0 45 45" fill="none" xmlns="http://www.w3.org/2000/svg">
<path d="M40.8853 18.8278H39.375V18.75H22.5V26.25H33.0966C31.5506 30.6159 27.3966 33.75 22.5 33.75C16.2872 33.75 11.25 28.7128 11.25 22.5C11.25 16.2872 16.2872 11.25 22.5 11.25C25.3678 11.25 27.9769 12.3319 29.9634 14.0991L35.2669 8.79562C31.9181 5.67469 27.4387 3.75 22.5 3.75C12.1453 3.75 3.75 12.1453 3.75 22.5C3.75 32.8547 12.1453 41.25 22.5 41.25C32.8547 41.25 41.25 32.8547 41.25 22.5C41.25 21.2428 41.1206 20.0156 40.8853 18.8278Z" fill="#FFC107"/>
<path d="M5.91211 13.7728L12.0724 18.2906C13.7393 14.1638 17.7762 11.25 22.5002 11.25C25.368 11.25 27.9771 12.3319 29.9637 14.0991L35.2671 8.79562C31.9184 5.67469 27.439 3.75 22.5002 3.75C15.2984 3.75 9.05273 7.81594 5.91211 13.7728Z" fill="#FF3D00"/>
<path d="M22.4998 41.2502C27.3429 41.2502 31.7436 39.3967 35.0707 36.3827L29.2676 31.472C27.3219 32.9518 24.9443 33.7521 22.4998 33.7502C17.6229 33.7502 13.482 30.6405 11.922 26.3008L5.80762 31.0117C8.91074 37.0839 15.2126 41.2502 22.4998 41.2502Z" fill="#4CAF50"/>
<path d="M40.8853 18.8278H39.375V18.75H22.5V26.25H33.0966C32.3571 28.3279 31.025 30.1436 29.265 31.4728L29.2678 31.4709L35.0709 36.3816C34.6603 36.7547 41.25 31.875 41.25 22.5C41.25 21.2428 41.1206 20.0156 40.8853 18.8278Z" fill="#1976D2"/>
</svg>
